Coordinates
version=1
nRows=13
nColumns=40
inDegrees=yes

Units are S.I. units (second, meters, Newtons, ...)
Angles are in degrees.

endheader
time	pelvis_tilt	pelvis_list	pelvis_rotation	pelvis_tx	pelvis_ty	pelvis_tz	hip_flexion_r	hip_adduction_r	hip_rotation_r	knee_angle_r	knee_angle_r_beta	ankle_angle_r	subtalar_angle_r	mtp_angle_r	hip_flexion_l	hip_adduction_l	hip_rotation_l	knee_angle_l	knee_angle_l_beta	ankle_angle_l	subtalar_angle_l	mtp_angle_l	lumbar_extension	lumbar_bending	lumbar_rotation	arm_flex_r	arm_add_r	arm_rot_r	elbow_flex_r	pro_sup_r	wrist_flex_r	wrist_dev_r	arm_flex_l	arm_add_l	arm_rot_l	elbow_flex_l	pro_sup_l	wrist_flex_l	wrist_dev_l
      0.62000000	     -2.76050352	     -1.39509475	     -1.48600542	     -0.88480916	      0.89053621	      1.50607493	      4.76657400	      0.04454866	    -17.88083305	    -20.44511293	     -0.35683454	     11.64205268	      3.41604765	      0.70462254	     30.66074228	      6.31941752	     10.87591788	    -52.62136754	     -0.91841612	      7.70598491	     18.30405451	     19.57768937	     -4.60036122	      4.40525529	      2.09532492	      6.94596903	    -11.68115404	    -10.97614556	     35.61923505	     89.95437384	      0.00000000	      0.00000000	     -5.81776214	      7.60495734	     12.27821937	     25.12442951	     89.95437384	      0.00000000	      0.00000000
      0.63000000	     -2.74859874	     -1.40430728	     -1.47903312	     -0.87654154	      0.89008718	      1.50656413	      4.08816960	      0.07887355	    -17.99414239	    -20.32521023	     -0.35474184	     11.83425885	      3.52163561	      0.50595163	     30.94083904	      6.27993077	     10.94883827	    -50.00729497	     -0.87279195	      7.82829309	     18.06704377	     19.37209456	     -4.68261820	      4.39098192	      2.20400956	      7.15683250	    -11.72412749	    -11.06821585	     36.24533017	     89.95437384	      0.00000000	      0.00000000	     -6.17081137	      7.58823871	     12.67549927	     24.57129764	     89.95437384	      0.00000000	      0.00000000
      0.64000000	     -2.53146083	     -1.32065573	     -1.43887396	     -0.86797502	      0.88991719	      1.50684104	      3.11560729	     -0.03866234	    -18.37195162	    -20.14021169	     -0.35151301	     11.95369600	      3.88632927	      0.05570080	     30.85574881	      6.15037563	     11.12941247	    -47.22186844	     -0.82417708	      8.00860126	     17.82979385	     19.00354707	     -4.96742928	      4.26090050	      2.25595307	      7.44018243	    -11.74608978	    -11.16701836	     36.74630884	     89.95437384	      0.00000000	      0.00000000	     -6.50797822	      7.55041390	     13.14069697	     24.06619590	     89.95437384	      0.00000000	      0.00000000
      0.65000000	     -2.57552708	     -1.32413094	     -1.40144286	     -0.85957478	      0.88925551	      1.50710376	      2.44666100	     -0.04433624	    -18.65776593	    -19.95281110	     -0.34824225	     12.16231171	      4.26046417	     -0.31211203	     31.03629399	      6.11366464	     11.21565542	    -44.37133234	     -0.77442584	      8.01872862	     17.35371451	     18.53384114	     -4.97380292	      4.22457674	      2.34243955	      7.61629089	    -11.78425466	    -11.27682156	     37.29230932	     89.95437384	      0.00000000	      0.00000000	     -6.78181630	      7.54591633	     13.36393743	     23.49812334	     89.95437384	      0.00000000	      0.00000000
      0.66000000	     -2.93203737	     -1.63069737	     -1.34303930	     -0.85163285	      0.88798988	      1.50747759	      2.22028356	      0.30357616	    -18.85619172	    -19.94699761	     -0.34814078	     12.25538957	      4.28776361	     -0.41276173	     31.68909678	      6.42980569	     11.14609534	    -41.73029184	     -0.72833099	      8.00491592	     16.69538708	     18.23930055	     -4.66789963	      4.50346671	      2.42154863	      7.77001247	    -11.88620935	    -11.24704146	     37.77908303	     89.95437384	      0.00000000	      0.00000000	     -7.31109233	      7.56716318	     13.37586516	     23.47605332	     89.95437384	      0.00000000	      0.00000000
      0.67000000	     -3.20289021	     -1.83346006	     -1.24557973	     -0.84335313	      0.88679557	      1.50761266	      1.81073663	      0.55116550	    -19.08674250	    -19.77503854	     -0.34513953	     12.43719040	      4.37856751	     -0.51677561	     32.10848313	      6.62068650	     11.26214027	    -38.94710940	     -0.67975529	      8.00012411	     15.97493774	     17.98935143	     -4.40722959	      4.68769874	      2.41191010	      7.91792041	    -11.96213129	    -11.22393924	     38.22326193	     89.95437384	      0.00000000	      0.00000000	     -7.69693743	      7.60243109	     13.40913542	     23.16582881	     89.95437384	      0.00000000	      0.00000000
      0.68000000	     -2.57674583	     -1.52668449	     -1.15016744	     -0.83422217	      0.88715809	      1.50753296	      0.23059034	      0.10952014	    -19.63088997	    -19.40271212	     -0.33864121	     12.42932137	      5.39154164	     -0.99211349	     31.12271598	      6.28996446	     11.84300332	    -35.66036403	     -0.62239076	      7.70539011	     14.60857626	     16.97551711	     -5.14038820	      4.25633679	      2.35258415	      8.13147592	    -11.84342585	    -11.38300335	     38.68242807	     89.95437384	      0.00000000	      0.00000000	     -7.78051209	      7.67601457	     13.72262649	     22.46852698	     89.95437384	      0.00000000	      0.00000000
      0.69000000	     -2.64647173	     -1.43952834	     -1.03044943	     -0.82551545	      0.88615306	      1.50698295	     -0.29868734	     -0.31626383	    -20.97271997	    -19.57632192	     -0.34167127	     12.56997755	      7.48793609	     -3.84455171	     31.18027369	      6.24155603	     12.57910157	    -32.90995452	     -0.57438706	      6.96411891	     13.88561180	     11.53439369	     -5.09471540	      4.12719711	      2.35754916	      8.20228762	    -11.94328831	    -11.38537962	     39.08052583	     89.95437384	      0.00000000	      0.00000000	     -8.04355925	      7.65484982	     13.94798327	     22.18999628	     89.95437384	      0.00000000	      0.00000000
      0.70000000	     -2.90802745	     -1.67117000	     -0.92374787	     -0.81719985	      0.88486881	      1.50674200	     -0.68101676	     -0.04435775	    -20.92794190	    -19.50072070	     -0.34035178	     12.56881464	      7.34329779	     -3.91375063	     31.66102300	      6.49449286	     12.95840492	    -30.65729737	     -0.53507078	      6.81513792	     12.96950068	     11.25763300	     -4.85340545	      4.33808267	      2.35611893	      8.32018803	    -12.05077033	    -11.30323635	     39.37439514	     89.95437384	      0.00000000	      0.00000000	     -8.24319686	      7.66416307	     13.92776479	     21.79424218	     89.95437384	      0.00000000	      0.00000000
      0.71000000	     -2.80325255	     -1.63755246	     -0.96346215	     -0.80821996	      0.88414584	      1.50650972	     -1.52216855	     -0.12936077	    -21.00632273	    -19.34911593	     -0.33770578	     12.69591900	      7.33601757	     -4.12604813	     31.55190840	      6.65599145	     14.05074407	    -28.44777681	     -0.49650737	      6.56993968	     11.38852647	     10.56357702	     -4.99434712	      4.21913124	      2.47070897	      8.44476481	    -12.06780222	    -11.33945235	     39.56646243	     89.95437384	      0.00000000	      0.00000000	     -8.38273647	      7.65017867	     14.26370584	     21.39117561	     89.95437384	      0.00000000	      0.00000000
      0.72000000	     -3.08169394	     -1.75515933	     -0.87648313	     -0.79960743	      0.88270006	      1.50600626	     -1.80794377	     -0.04171677	    -21.05724682	    -19.42201638	     -0.33897813	     12.74281570	      7.32688375	     -4.27750623	     32.07067005	      6.86324985	     14.82095488	    -26.69271238	     -0.46587572	      6.34453944	      9.96117138	      9.92630342	     -4.72335630	      4.27462098	      2.44432889	      8.49652170	    -12.13904252	    -11.26802487	     39.77893885	     89.95437384	      0.00000000	      0.00000000	     -8.58219370	      7.67016148	     14.31703720	     21.10684603	     89.95437384	      0.00000000	      0.00000000
      0.73000000	     -3.35999949	     -1.95354875	     -0.75684357	     -0.79099159	      0.88126927	      1.50528124	     -2.08586105	      0.11024067	    -21.09433666	    -19.53399406	     -0.34093251	     12.79527670	      7.27128600	     -4.31462029	     32.70641922	      7.07587844	     15.41209723	    -25.41139499	     -0.44351251	      6.43746813	      9.36264411	      9.69795157	     -4.45932035	      4.44334785	      2.36195400	      8.56232942	    -12.19558180	    -11.25360041	     39.91528399	     89.95437384	      0.00000000	      0.00000000	     -8.78771608	      7.65166169	     14.32803001	     20.88397722	     89.95437384	      0.00000000	      0.00000000
      0.74000000	     -3.55481750	     -1.73899087	     -0.87235485	     -0.78202055	      0.88004315	      1.50454092	     -2.32943154	     -0.26662635	    -20.79429386	    -19.91925276	     -0.34765655	     12.81967144	      7.24447079	     -4.48465716	     32.87179384	      7.02965196	     16.56697536	    -23.83803826	     -0.41605225	      5.90662994	      6.69116361	      8.79632682	     -4.23757381	      4.14007471	      2.51376861	      8.60649099	    -12.23577086	    -11.25300349	     39.95715421	     89.95437384	      0.00000000	      0.00000000	     -8.81477835	      7.61726965	     14.67641507	     20.43315768	     89.95437384	      0.00000000	      0.00000000
